<?xml version="1.0" standalone="no"?>
<!DOCTYPE svg PUBLIC "-//W3C//DTD SVG 20010904//EN"
 "http://www.w3.org/TR/2001/REC-SVG-20010904/DTD/svg10.dtd">
<svg version="1.0" xmlns="http://www.w3.org/2000/svg"
 width="1024.000000pt" height="1024.000000pt" viewBox="0 0 1024.000000 1024.000000"
 preserveAspectRatio="xMidYMid meet">
<metadata>
Created by potrace 1.11, written by Peter Selinger 2001-2013
</metadata>
<g transform="translate(0.000000,1024.000000) scale(0.100000,-0.100000)"
fill="#000000" stroke="none">
<path d="M4859 9105 c-2 -2 -44 -6 -94 -10 -49 -4 -97 -9 -106 -10 -9 -2 -38
-6 -65 -9 -27 -4 -62 -8 -79 -10 -177 -23 -498 -105 -740 -189 -275 -96 -604
-262 -870 -439 -79 -53 -191 -134 -205 -148 -3 -3 -30 -24 -60 -47 -235 -180
-532 -487 -725 -747 -96 -131 -199 -291 -287 -445 -47 -82 -140 -277 -191
-396 -49 -117 -151 -407 -161 -459 -2 -12 -7 -28 -10 -36 -3 -8 -8 -26 -10
-40 -3 -14 -7 -34 -10 -45 -8 -28 -34 -146 -40 -181 -16 -84 -26 -143 -31
-179 -4 -22 -8 -51 -10 -65 -3 -14 -7 -47 -10 -75 -3 -27 -8 -70 -11 -95 -12
-104 -11 -599 1 -720 19 -183 50 -393 60 -410 2 -3 6 -22 9 -43 8 -49 50 -218
77 -311 275 -937 889 -1742 1731 -2269 59 -37 110 -67 114 -67 4 0 15 -6 23
-14 25 -22 282 -148 429 -210 171 -72 430 -158 542 -181 8 -2 42 -10 75 -19
69 -17 192 -43 250 -51 22 -4 51 -8 65 -11 33 -5 167 -22 255 -31 149 -15 721
-7 795 12 8 2 40 6 71 10 31 3 66 7 77 10 11 2 37 6 58 9 107 17 172 30 314
66 1007 253 1868 882 2422 1770 242 389 436 874 519 1305 20 102 38 212 45
270 3 33 8 69 10 80 19 96 26 599 11 765 -14 160 -24 246 -43 350 -9 47 -18
96 -20 110 -18 107 -93 383 -146 535 -73 214 -231 552 -326 700 -6 11 -15 27
-19 35 -7 16 -115 180 -178 270 -34 49 -157 207 -210 269 -104 122 -264 285
-390 395 -132 116 -135 118 -231 191 -49 37 -96 72 -104 78 -37 29 -223 149
-310 199 -191 113 -453 233 -665 308 -49 17 -101 35 -115 40 -184 65 -549 143
-775 165 -33 4 -73 9 -90 12 -34 6 -611 14 -616 8z m441 -780 c63 -3 131 -8
150 -10 19 -2 55 -7 80 -10 85 -10 125 -15 140 -20 8 -2 33 -7 55 -10 22 -4
58 -11 80 -17 22 -5 48 -12 57 -13 100 -20 379 -111 518 -171 81 -34 360 -177
397 -202 16 -11 64 -43 108 -72 86 -57 204 -142 245 -176 195 -164 319 -288
494 -494 154 -181 388 -580 471 -800 15 -41 33 -88 40 -105 39 -91 120 -380
141 -505 10 -62 24 -147 29 -174 14 -90 20 -217 20 -426 0 -237 -8 -364 -30
-490 -3 -14 -7 -41 -10 -60 -21 -140 -107 -448 -171 -613 -44 -113 -167 -367
-224 -462 -323 -538 -770 -958 -1315 -1237 -296 -151 -660 -269 -972 -313
-101 -15 -183 -24 -263 -30 -66 -5 -355 -6 -425 -1 -154 11 -359 40 -475 68
-47 11 -98 22 -115 25 -54 9 -348 110 -456 156 -202 87 -345 164 -534 290 -78
52 -237 170 -271 202 -6 5 -40 35 -74 65 -494 431 -867 1063 -1005 1703 -20
91 -30 146 -40 207 -3 25 -8 56 -11 70 -4 32 -13 133 -19 220 -6 84 -6 341 0
405 11 141 17 188 30 275 9 52 18 109 20 126 6 42 48 209 75 304 86 300 252
645 442 918 467 672 1180 1146 1978 1316 41 9 93 18 115 21 22 3 51 8 65 10
69 13 198 26 315 31 72 4 131 7 132 8 2 1 75 -1 213 -9z"/>
<path d="M3103 7306 c-5 -7 -8 -1236 -4 -1318 1 -15 51 -16 607 -16 391 0 609
-4 613 -10 3 -6 6 -767 5 -1691 l-1 -1681 31 -1 c51 -1 1520 -1 1531 0 7 1 10
565 9 1684 0 925 1 1687 3 1692 2 7 217 9 623 8 l620 -1 1 31 c5 188 0 1299
-5 1305 -11 10 -4027 9 -4033 -2z m2113 -510 c203 -94 378 -522 368 -894 -2
-53 -5 -108 -8 -122 -31 -147 -65 -219 -138 -297 -28 -29 -56 -53 -62 -53 -22
0 -96 -80 -118 -128 -29 -61 -30 -181 -3 -497 2 -27 7 -88 10 -135 3 -47 8
-114 10 -150 3 -36 8 -101 10 -145 3 -44 7 -111 10 -150 3 -38 8 -95 10 -125
2 -30 7 -98 10 -150 6 -96 10 -146 20 -275 3 -38 7 -101 10 -140 12 -189 17
-263 20 -295 13 -133 15 -272 5 -311 -39 -147 -215 -230 -351 -167 -62 29 -89
53 -127 111 -26 40 -27 48 -26 162 0 108 5 197 19 365 2 30 7 96 10 145 3 50
7 115 10 145 2 30 7 96 10 145 8 127 15 231 20 295 2 30 7 96 10 145 3 50 8
126 11 170 7 98 10 139 19 280 4 61 8 126 10 145 7 69 19 276 18 315 -1 95
-47 182 -124 234 -99 68 -164 159 -195 276 -83 302 23 781 221 1006 101 114
203 145 311 95z"/>
</g>
</svg>
