<svg xmlns="http://www.w3.org/2000/svg" viewBox="0 0 6711.62 1883.29"><defs><style>.cls-1{fill:#fff;}.cls-2{fill:none;}.cls-3{fill:#00a7ce;}.cls-4{fill:#77bc1f;}.cls-5{fill:#e74683;}.cls-6{fill:#ff9e16;}</style></defs><title>Asset 1</title><g id="Layer_2" data-name="Layer 2"><g id="artwork"><polyline class="cls-1" points="86.1 616.79 0 616.79 0 1871.46 196.09 1871.46 196.09 1063.3 607.11 1871.46 743.85 1871.46 1153.13 1063.99 1153.13 1871.46 1349.21 1871.46 1349.21 616.79 1263.12 616.79 1256.49 616.79 1164.28 616.79 674.69 1578.59 186.67 616.79 92.4 616.79"/><path class="cls-1" d="M2023.55,1883.29c-203,0-365.47-57.44-483-170.73-118.16-113.81-178.07-271.41-178.07-468.42,0-195.29,60.53-349.8,179.91-459.24,118-108.18,279.93-163,481.19-163s363.34,54.82,481.93,162.93h0c120,109.46,180.86,264,180.86,459.34,0,194.74-60.48,351.78-179.75,466.74C2387.86,1825.28,2225.35,1883.29,2023.55,1883.29Zm0-1072.1c-148.14,0-264.22,38-345,112.82s-120,179.5-120,320.12c0,141.27,39.89,249.1,122,329.65,82.35,80.87,194.57,120.17,343,120.17,148.69,0,265-39.9,345.7-118.6,81.41-79.44,121-187.78,121-331.21,0-140.6-39.25-245.31-120-320.12S2172.79,811.19,2023.55,811.19Z"/><path class="cls-1" d="M4791,1883.29c-156.84,0-285.58-29.3-382.68-87.1-128.49-74-194-191.68-194-349.46v-95.51h196.09V1440c0,109,39.63,254,382.28,254,91.88,0,168.92-13.71,229-40.75,87.45-39.73,97.58-94.48,97.58-132.19,0-42.2-10-72.33-30.46-92.1-13.17-12.58-43.15-32-110.27-52.52-33.17-8.79-112.62-26.66-236.2-53.15-151.26-31.68-251.86-60.89-307.29-89.25-120-60.63-183.57-157.58-183.57-280.25,0-288.26,276-348.76,507.46-348.76,435.54,0,530.14,229.64,532.79,422.28l.77,55.75H5100.41l-3-51.86c-5.64-98.76-36.05-161.86-93-192.91-52.6-29.22-135.07-43.94-245.49-43.94-311.38,0-311.38,120-311.38,159.43,0,49.43,21.64,82.84,70.18,108.31,27.83,14.25,88.88,36.55,219,60.45,213.2,37.5,353.61,77.94,428.84,123.56,99.35,60,149.73,154.17,149.73,280,0,126.15-67.21,226.09-194.37,289C5029.32,1860.35,4918.33,1883.29,4791,1883.29Z"/><polygon class="cls-1" points="6466.82 1871.46 6270.73 1871.46 6270.73 1314.32 5546.69 1314.32 5546.69 1871.46 5350.59 1871.46 5350.59 616.79 5546.69 616.79 5546.69 1126.67 6270.73 1126.67 6270.73 616.79 6466.82 616.79 6466.82 1871.46"/><rect class="cls-1" x="6515.53" y="616.79" width="196.09" height="1254.67"/><path class="cls-1" d="M3453.73,1883.29c-204,0-353-37.28-455.31-114a386.78,386.78,0,0,1-117-138.13q-6.19-12.19-11.64-25c-27-63.21-40.67-137.86-40.67-221.89V737.46a113.83,113.83,0,0,1-1.19-16.24c0-131.8,206.78-199.13,614.72-200.16L3455.11,0l202.24,9.39-31.74,461,118.13-374.8,191.69,65.16-139.82,383c135.84,20.61,280.8,64.35,280.8,177.53v666.41c0,80.5-12.82,152.58-38.11,214.23-4.46,10.9-8.85,20.63-13.43,29.72a389.07,389.07,0,0,1-65.82,93.53c-3.7,3.88-6.78,7.1-10,10.21a399.83,399.83,0,0,1-42.45,36C3802.8,1846.71,3654.73,1883.29,3453.73,1883.29ZM3452.15,631c-387.67,0-514.28,67.07-514.28,90.18l1.06,5.31.13,6.35v651.38c0,69.11,10.71,129.23,31.84,178.71,2.69,6.29,5.52,12.45,8.57,18.45a274.72,274.72,0,0,0,84.44,99.54c81.94,61.39,212.94,92.35,389.82,92.35,174.51,0,305.08-30.56,388.07-90.82a287.92,287.92,0,0,0,30.55-26c2.26-2.19,4.39-4.43,6.51-6.66a280.78,280.78,0,0,0,47.8-67.74c3.56-7.08,6.82-14.45,9.9-22,19.84-48.38,29.89-106.41,29.89-172.53V721.23c0-.49-14.8-51.22-252-77.1l-33.76-3.69-36.82-2.67c-26.6-1.93-54.49-3.47-82.88-4.57l-65.54-1.81C3478.86,631.13,3464.23,631,3452.15,631Z"/><path d="M1208.12,1815.66V833L710.07,1815.66H640.84L141.1,833v982.61H55V671h97.92L674.61,1699.16,1198,671h96.23V1815.66Z"/><path d="M2468.43,1670.46q-163,157-444.88,157-283.64,0-444.88-155.33t-161.23-428.83q0-270.11,162.08-418.7t444-148.57q281.94,0,444.88,148.57t162.92,418.7Q2631.35,1513.46,2468.43,1670.46Zm-60.78-787.61Q2270,755.4,2023.55,755.39q-244.82,0-382.4,127.47t-137.6,360.46q0,233,138.44,368.9t381.56,135.91q246.49,0,384.1-134.22t137.6-370.59Q2545.25,1010.33,2407.65,882.85Z"/><path d="M4791,1827.48q-221.19,0-354.55-79.36-167.14-96.23-167.14-302.21v-40.52h86.1v33.77q0,309,437.28,309,150.24,0,251.56-45.59,130-59.07,130-182.34,0-86.1-47.27-131.69-38.85-37.12-133.37-65.84-50.65-13.5-239.75-54-217.79-45.6-293.77-84.42-153.65-77.63-153.63-231.29,0-293.77,452.47-293.77,472.7,0,477.8,368.05h-84.42q-10.13-177.27-121.56-238.06Q4939.62,738.5,4759,738.5q-366.38,0-366.37,214.42,0,104.7,99.61,157,69.2,35.45,234.67,65.85,307.27,54,410.26,116.5,123.22,74.31,123.25,233T5096.63,1765Q4970,1827.49,4791,1827.48Z"/><path d="M6325.72,1815.66V1258.51h-834v557.14h-86.11V671h86.11v509.87h834V671h86.11V1815.66Z"/><path d="M6570.52,1815.66V671h86.11V1815.66Z"/><path class="cls-2" d="M3359,1492l-21.61,68.57-4.91,15.59-14.32,45.42,20.5,7,.22-.61-18.7-6.36,14.32-45.42,4.91-15.59L3361,1492l5-15.79c-172.93-8.24-311.87-33-379.73-47.16,0,.15,0,.28.06.43,68.56,14.24,206.38,38.57,377.66,46.73Z"/><path class="cls-2" d="M3472.2,1494.52l-1.68,70.15-.37,15.59-.08,3.32,21.62,1v-.09l-19.61-.91.08-3.32.37-15.59,1.68-70.15.37-15.59q-40.28-.09-78.74-1.5v0c25,.87,50.57,1.41,76.73,1.46Z"/><path class="cls-2" d="M3915.26,1447.94a371.56,371.56,0,0,1-16.13,72.83c-2.1,6.25-4.27,12.45-6.71,18.44a283.17,283.17,0,0,1-44,74.15,279.26,279.26,0,0,1-22.2,24.07q-115.27,110.31-373.47,110.68h1q259.18,0,374.48-110.69a279.26,279.26,0,0,0,22.2-24.07,283.17,283.17,0,0,0,44-74.15c2.44-6,4.61-12.19,6.71-18.44a371.56,371.56,0,0,0,16.13-72.83c.7-5.67,1.69-11.13,2.18-17-.69.16-1.39.29-2.08.46C3916.88,1437.09,3915.95,1442.42,3915.26,1447.94Z"/><polygon class="cls-2" points="3441.57 1236.41 3445.78 1223.07 3445.78 1223.07 3441.57 1236.41"/><path class="cls-1" d="M3848.39,1613.36a283.17,283.17,0,0,0,44-74.15c2.44-6,4.61-12.19,6.71-18.44a371.56,371.56,0,0,0,16.13-72.83c.68-5.52,1.62-10.85,2.12-16.51-142.27,33.49-285.29,46.16-416.4,47.39l-1.06,15.36-4.85,70.39-1.07,15.48-.31,4.52-2-.09v.09l-21.62-1,.08-3.32.37-15.59,1.68-70.15.37-15.59c-26.17-.06-51.72-.59-76.73-1.46l-5.71,15.65-25.1,68.75-5.69,15.57-18.65,51.09-1.8-.61-.22.61-20.5-7,14.32-45.42,4.91-15.59L3359,1492l5-15.79c-171.27-8.16-309.1-32.5-377.66-46.73.57,6.18,1.61,12,2.4,18a376.65,376.65,0,0,0,16,71c2.08,6.2,4.2,12.39,6.61,18.34a286.61,286.61,0,0,0,47.81,78.95c5.19,6.09,10.3,12.25,16,17.92q115.45,114.13,377.5,114.39,258.37-.22,373.47-110.68A279.26,279.26,0,0,0,3848.39,1613.36Z"/><path class="cls-3" d="M3618.92,673.74c-19.82-1.31-40.66-2.37-62.27-3.22l-6.89,100.08q20.09-.74,39.18-1.75Z"/><path class="cls-3" d="M3002.07,720.42c59.68,22.74,214.07,52,450.07,52,13.43,0,26.52-.12,39.41-.31L3494,668.76q-20.51-.31-41.9-.32C3216.15,668.43,3061.75,697.67,3002.07,720.42Z"/><path class="cls-3" d="M3902.22,720.42c-36.74-14-109.51-30.45-215-41l-31,84.91C3778.54,754,3862,735.75,3902.22,720.42Z"/><path class="cls-3" d="M3921.25,812c-81.33,28.8-198.71,42.32-300.16,48.52l-68.57,187.79c117.93-4,243.72-18,368.72-48.07Z"/><path class="cls-3" d="M3539,927.43l20.13-63.87c-5.37.2-10.6.38-15.77.55Z"/><path class="cls-3" d="M3489.32,865.34c-14,.19-26.61.27-37.18.27-92.68,0-330.78-5.08-467.9-53.19v187.66c84.23,17.5,273.55,50.36,500.65,49.46Z"/><path class="cls-4" d="M3476.3,1407.76l.35-14.6,1.7-70.75.38-15.76c-6.93.1-13.71.06-20.56.09l-5.68,15.55-25.7,70.4-5.59,15.32-25.34,69.42q38.45,1.36,78.74,1.5Z"/><path class="cls-4" d="M3511.79,1322l-4.89,71-1,14.3-4.92,71.5c131.11-1.22,274.13-13.89,416.4-47.39.69-.16,1.39-.29,2.08-.46,1.16-13.72,1.78-27.86,1.78-42.47V1248.24c-140.49,37.52-280.18,53.69-408.35,57.59Z"/><path class="cls-4" d="M3387.68,1407.4l4.95-15.69,22.09-70.08,4.74-15.05c-199.17-2.71-360-32.08-435.21-48.59v125.46c0,15.71.71,30.87,2,45.57,67.86,14.17,206.81,38.92,379.73,47.16Z"/><path class="cls-5" d="M3921.25,1087v-86.72c-125,30.09-250.79,44-368.72,48.07l-27,73.89-.59,8.57c126.62-1.81,263.13-13,396.29-40.63Z"/><path class="cls-5" d="M3483.62,1103l1.28-53.49c-227.11.9-416.43-32-500.65-49.46V1088c51.93,9.43,248.71,42.07,490.52,43.1Z"/><path class="cls-6" d="M3480.17,1246.48l-22,60.27c6.85,0,13.63,0,20.56-.09Z"/><path class="cls-6" d="M3441.57,1236.41l4.2-13.34h0l.71-2.26,22-69.89,4.91-15.59,1.34-4.26c-241.82-1-438.6-33.67-490.52-43.1v170c75.22,16.51,236,45.88,435.21,48.59Z"/><path class="cls-6" d="M3921.25,1103.54v-13.4c-133.17,27.67-269.67,38.82-396.29,40.63l-.28,4.08-1.06,15.44-4.85,70.45-1.06,15.42-4.8,69.67c128.17-3.9,267.86-20.07,408.35-57.59v-144.7Z"/><path d="M3720.36,588.65,3864.5,193.88l-42.6-14.48-42.6-14.48L3647.8,582.11c-29.61-2.14-58.2-3.64-84.73-4.67L3598.64,60.9l-44.95-2.09-44.95-2.09-12.46,518.86c-16.89-.27-31.81-.36-44.13-.36-133.55,0-569.27,10.47-569.27,145.19a59.84,59.84,0,0,0,1.19,11.65v651.38q0,115.51,36.25,200.29,4.75,11.13,10.11,21.75a331.51,331.51,0,0,0,101,119q137.46,103,422.33,103,280.89,0,420.38-101.31a342.64,342.64,0,0,0,36.63-31.08c2.91-2.84,5.71-5.78,8.51-8.71a332.9,332.9,0,0,0,56.51-80.32c4.21-8.36,8.05-17,11.68-25.86q33.86-82.56,34-193.37V720.42C4021.42,641.36,3871.35,605.12,3720.36,588.65Zm181.87,131.77c-40.23,15.33-123.68,33.59-246,43.88l31-84.91C3792.71,690,3865.48,706.42,3902.22,720.42ZM3491.56,772.1c-12.9.18-26,.31-39.41.31-236,0-390.4-29.24-450.07-52,59.68-22.74,214.07-52,450.07-52q21.41,0,41.9.32Zm58.2-1.5,6.89-100.08c21.61.85,42.44,1.91,62.27,3.22l-30,95.11Q3569.85,769.86,3549.76,770.6Zm9.33,93L3539,927.43l4.36-63.32C3548.49,863.94,3553.72,863.76,3559.09,863.56Zm362.16,326.52v198.43c0,14.61-.62,28.75-1.78,42.47-.49,5.84-1.48,11.29-2.18,17a371.56,371.56,0,0,1-16.13,72.83c-2.1,6.25-4.28,12.45-6.71,18.44a283.17,283.17,0,0,1-44,74.15,279.26,279.26,0,0,1-22.2,24.07Q3712.7,1748,3453.72,1748.12h-1q-262.11-.22-377.5-114.39c-5.74-5.67-10.84-11.83-16-17.92a286.61,286.61,0,0,1-47.81-78.95c-2.41-6-4.52-12.13-6.61-18.34a376.65,376.65,0,0,1-16-71c-.79-6-1.83-11.84-2.4-18,0-.15,0-.28-.06-.43-1.31-14.7-2-29.86-2-45.57v-571c137.12,48.11,375.22,53.19,467.9,53.19,10.56,0,23.2-.08,37.18-.27l-4.42,184.19-1.28,53.49-8.84,28.06-1.34,4.26-4.91,15.59-22,69.89-.71,2.26-4.2,13.34-22.11,70.16-4.74,15.05-22.09,70.08-4.95,15.69L3366,1476.18l-5,15.79-21.61,68.57-4.91,15.59-14.32,45.42,18.7,6.36,1.8.61,18.65-51.09,5.69-15.57,25.1-68.75,5.71-15.65v0l25.34-69.42,5.59-15.32,25.7-70.4,5.68-15.55,22-60.27-1.45,60.18-.38,15.76-1.7,70.75-.35,14.6-1.71,71.17-.37,15.59-1.68,70.15-.37,15.59-.08,3.32,19.61.91,2,.09.31-4.52,1.07-15.48,4.85-70.39,1.06-15.36,4.92-71.5,1-14.3,4.89-71,1.11-16.15,4.8-69.67,1.06-15.42,4.85-70.45,1.06-15.44.28-4.08.59-8.57,27-73.89,68.57-187.79c101.45-6.2,218.83-19.72,300.16-48.52v378.07Z"/></g></g></svg>